<svg width="38" height="40" viewBox="0 0 38 40" fill="none" xmlns="http://www.w3.org/2000/svg">
<path d="M0 30.842C0 17.4372 15.5789 17.8529 18.7742 26.5361C19.5429 28.6251 16.5001 30.4963 13.6776 29.8048C14.6184 26.599 11.3279 21.7902 6.7663 22.8274C4.06156 23.4493 3.87233 27.8917 8.18526 31.1699C12.4982 34.4481 18.6418 31.6153 19.2942 30.4132C20.2643 35.3758 13.6776 42.1211 5.57259 38.9656C1.54894 37.3991 0 33.5977 0 30.842ZM9.32579 0.262131C12.2777 0.291166 18.7634 -0.028217 18.7634 6.04007C18.7634 12.2245 11.3262 11.818 8.47192 11.818C8.50445 13.3665 9.21566 15.5635 10.6055 18.4089H1.07999C2.70532 15.5817 3.51798 12.562 3.51798 9.35005C3.51798 6.13807 2.70532 3.10876 1.07999 0.262131H9.32579ZM21.0677 7.94124C23.3853 -5.20233 38.0309 -0.391606 37.9895 10.4915C37.9785 15.5068 31.0608 21.1064 24.5291 16.7645C21.2865 14.609 20.5913 10.6433 21.0677 7.94124ZM38.0002 20.3576H19.7479C27.5723 24.7212 25.7625 36.0427 19.63 39.6062H27.5723C27.7242 38.6883 29.2519 26.9728 30.6665 26.9518C32.147 26.93 33.5172 38.6455 33.6762 39.6062H38.0002C36.3888 36.4731 35.5831 33.2905 35.5831 30.0584C35.5831 26.8263 36.3888 23.5927 38.0002 20.3576Z" fill="black"/>
</svg>
