<svg width="50" height="52" viewBox="0 0 50 52" fill="none" xmlns="http://www.w3.org/2000/svg">
<path d="M24.5442 34.6917C20.3669 23.3399 0 22.7964 0 40.321C0 43.9236 2.02499 48.8933 7.28527 50.9412C17.8813 55.0666 26.4924 46.2482 25.2241 39.7604C24.3711 41.332 16.3394 45.0353 10.7009 40.7496C5.06245 36.4639 5.30983 30.6561 8.84585 29.8432C14.8094 28.4872 19.1112 34.7739 17.8813 38.965C21.5712 39.869 25.5492 37.4227 24.5442 34.6917ZM49.6792 26.6143H25.8172C36.0463 32.3191 33.6803 47.12 25.663 51.7788H36.0463L36.1011 51.4166C36.484 48.7958 38.3531 35.2609 40.0915 35.2352C42.027 35.2066 43.8183 50.5228 44.0262 51.7788H49.6792C47.5725 47.6827 46.5192 43.522 46.5192 39.2965C46.5192 35.0711 47.5725 30.8436 49.6792 26.6143ZM12.192 0.342695H1.41191C3.53677 4.06421 4.59919 8.02455 4.59919 12.2237C4.59919 16.4228 3.53677 20.3705 1.41191 24.0667H13.865L13.6631 23.6492C11.9791 20.1312 11.1166 17.3982 11.0757 15.4502L12.5037 15.4573C16.8286 15.4628 24.5302 15.0922 24.5302 7.89642C24.5302 -0.0368933 16.0511 0.380654 12.192 0.342695ZM49.6653 13.7159C49.7192 -0.511963 30.5725 -6.80121 27.5427 10.3819L27.5043 10.6146C26.9609 14.1387 27.9209 19.1602 32.0679 21.9169C40.607 27.5933 49.6508 20.2726 49.6653 13.7159Z" fill="#FF0000"/>
</svg>
